<?xml version="1.0" encoding="UTF-8" standalone="no"?>
<!-- Created with Inkscape (http://www.inkscape.org/) -->

<svg
   width="1200"
   height="1200"
   viewBox="0 0 317.49999 317.49999"
   id="svg5"
   xmlns="http://www.w3.org/2000/svg"
   xmlns:svg="http://www.w3.org/2000/svg">

  <defs
     id="defs2" />
  <rect
     style="fill:#252525;fill-opacity:0.995409;stroke:none;stroke-width:0.264583;stroke-linecap:round;stroke-linejoin:round;stroke-miterlimit:4;stroke-dasharray:none;stroke-opacity:0.988235"
     id="rect4038"
     width="317.5"
     height="317.5"
     x="0"
     y="0" />
  <g
     id="g2862"
     transform="rotate(45,-65.341517,491.793)"
     style="fill:none;fill-opacity:1;stroke:#5d5d5d;stroke-width:1.05833;stroke-miterlimit:4;stroke-dasharray:none;stroke-opacity:1">
    <path
       id="path2856"
       style="fill:none;fill-opacity:1;stroke:#5d5d5d;stroke-width:1.05833;stroke-linecap:butt;stroke-linejoin:miter;stroke-miterlimit:4;stroke-dasharray:none;stroke-opacity:1"
       d="m 36.179408,107.56906 c 3.169718,-0.68509 11.866134,-1.23679 17.379068,-0.0935 m -17.379068,0.0935 c -2.167258,-3.6926 -8.41512,-6.76103 -6.304077,-13.112058 1.253873,-3.772252 4.76337,-6.229814 11.992333,-4.015697 l 0.300773,-1.718746 h -2.375541 v -4.484518 h 2.633396 v -2.69299 h 4.571296 v 2.614001 h 2.649609 v 4.570412 h -2.370199 l 0.31307,1.8145 c 9.054503,-3.427852 11.749561,2.625428 12.156306,4.398751 1.3428,7.497155 -3.802799,7.679495 -6.187898,12.532805 3.48376,1.25924 2.71485,3.43386 2.71485,6.65798 l -23.111848,-0.0422 c 0.0099,-1.04839 -0.03348,-2.4432 0.239423,-3.71719 0.272904,-1.27399 1.215439,-2.41915 2.778507,-2.80503 z" />
    <path
       style="fill:none;fill-opacity:1;stroke:#5d5d5d;stroke-width:1.05833;stroke-linecap:butt;stroke-linejoin:miter;stroke-miterlimit:4;stroke-dasharray:none;stroke-opacity:1"
       d="m 42.0347,102.74706 v -6.098662 c -3.205232,-2.085078 -4.706114,-1.676461 -5.93344,0 -0.312977,0.794642 -0.173268,1.286233 0,1.755357 l 3.725455,4.354695 z"
       id="path2858" />
    <path
       style="fill:none;fill-opacity:1;stroke:#5d5d5d;stroke-width:1.05833;stroke-linecap:butt;stroke-linejoin:miter;stroke-miterlimit:4;stroke-dasharray:none;stroke-opacity:1"
       d="m 47.567186,102.60875 v -6.098655 c 3.205232,-2.085078 4.706114,-1.676461 5.93344,0 0.312977,0.794642 0.173268,1.286233 0,1.755357 l -3.725455,4.354688 z"
       id="path2860" />
  </g>
  <path
     id="path1756"
     style="fill:none;fill-opacity:1;stroke:#000000;stroke-width:1.05833;stroke-linecap:butt;stroke-linejoin:miter;stroke-miterlimit:4;stroke-dasharray:none;stroke-opacity:0.988235"
     d="m 226.03004,291.62622 c 5.36616,3.85026 11.52858,11.01395 11.43102,11.46297 m 13.32393,-11.00613 c 1.43397,-0.062 2.74066,0.79415 3.25149,2.13037 0.5108,1.33622 0.11276,2.8569 -0.99047,3.78397 -1.10324,0.92708 -2.67105,1.02641 -3.89614,0.2904 l -11.68881,4.8014 c 1.46978,2.2266 0.92108,3.69871 -0.016,4.82526 l -2.31514,2.43917 -16.18886,-16.20018 2.84471,-2.69997 c 2.41827,-1.13941 3.57847,-0.0943 4.24438,0.17262 1.61146,-3.0865 2.81222,-7.10993 5.02769,-11.54008 -0.81447,-1.18123 -0.78971,-2.7441 0.0616,-3.88539 0.8513,-1.1413 2.33971,-1.60717 3.70039,-1.1582 1.36066,0.44896 2.29089,1.71291 2.31262,3.14227 0.0217,1.42936 -0.86986,2.70619 -2.21656,3.17433 l -0.10876,3.83904 5.55089,-4.75416 c -0.57284,-1.43138 -0.14262,-3.0665 1.05941,-4.02643 1.20203,-0.95992 2.89274,-1.01858 4.16333,-0.14442 1.27059,0.87415 1.82178,2.47523 1.35729,3.94261 -0.4645,1.46734 -1.83527,2.45536 -3.37548,2.43297 l -2.79859,5.93295 5.86196,-2.75946 c -8e-4,-0.002 0,-0.004 -7e-4,-0.006 -0.0999,-1.53485 0.81969,-2.9462 2.26182,-3.47003 1.4442,-0.52458 3.06831,-0.0341 3.99147,1.20532 0.92315,1.23947 0.92539,2.93264 0.006,4.16115 -0.91992,1.2285 -2.54277,1.69964 -3.98835,1.15787 l -4.81713,5.62403 3.75099,0.023 c 0.41754,-1.37637 1.52146,-2.37194 2.95541,-2.43392 z" />
  <path
     id="path2940"
     style="fill:none;fill-opacity:1;stroke:#5d5d5d;stroke-width:1.05833;stroke-linecap:butt;stroke-linejoin:miter;stroke-miterlimit:4;stroke-dasharray:none;stroke-opacity:1"
     d="m 173.13567,291.62622 c 5.36616,3.85026 11.52858,11.01395 11.43102,11.46297 m 13.32393,-11.00613 c 1.43397,-0.062 2.74066,0.79415 3.25149,2.13037 0.5108,1.33622 0.11276,2.8569 -0.99047,3.78397 -1.10324,0.92708 -2.67105,1.02641 -3.89614,0.2904 l -11.68881,4.8014 c 1.46978,2.2266 0.92108,3.69871 -0.016,4.82526 l -2.31514,2.43917 -16.18887,-16.20019 2.84472,-2.69996 c 2.41827,-1.13941 3.57847,-0.0943 4.24438,0.17262 1.61146,-3.0865 2.81222,-7.10993 5.02768,-11.54009 -0.81447,-1.18123 -0.7897,-2.74409 0.0616,-3.88538 0.8513,-1.1413 2.33971,-1.60717 3.70039,-1.1582 1.36065,0.44895 2.29088,1.71291 2.31262,3.14227 0.0217,1.42936 -0.86986,2.70619 -2.21657,3.17432 l -0.10875,3.83904 5.55088,-4.75416 c -0.57284,-1.43138 -0.14262,-3.06649 1.05941,-4.02643 1.20203,-0.95992 2.89275,-1.01857 4.16333,-0.14442 1.2706,0.87416 1.82179,2.47524 1.3573,3.94262 -0.4645,1.46734 -1.83527,2.45536 -3.37548,2.43297 l -2.79859,5.93295 5.86196,-2.75946 c -8e-4,-0.002 0,-0.004 -7e-4,-0.006 -0.0999,-1.53485 0.81969,-2.9462 2.26182,-3.47003 1.4442,-0.52458 3.06831,-0.0341 3.99147,1.20532 0.92315,1.23947 0.92539,2.93264 0.006,4.16115 -0.91992,1.2285 -2.54277,1.69964 -3.98835,1.15787 l -4.81713,5.62403 3.75099,0.023 c 0.41754,-1.37637 1.52146,-2.37194 2.95541,-2.43392 z" />
  <path
     id="path19892"
     style="fill:none;fill-opacity:1;stroke:#000000;stroke-width:1.05833;stroke-linecap:butt;stroke-linejoin:miter;stroke-miterlimit:4;stroke-dasharray:none;stroke-opacity:0.988235"
     d="m 130.74448,283.02137 c 5.4215,4.51956 7.94675,7.43319 9.53722,9.82849 m -19.37638,-1.94181 c 4.10273,3.35765 8.49642,7.05147 11.74758,11.64632 m 3.89275,-21.86208 c -0.007,-0.95176 1.05143,-2.0774 1.77316,-3.12584 -1.55423,-1.73143 -2.54245,-1.98215 -3.79485,-2.45664 -5.38458,6.17259 -4.48618,5.85133 -3.77946,7.91154 l -9.83916,7.88668 c -1.90031,-1.18767 -3.66446,-1.42831 -7.10714,2.31548 l 16.28507,16.31448 c 1.59369,-1.93533 4.47849,-3.18315 2.56963,-6.98363 2.21502,-3.13463 5.17633,-6.38059 7.62882,-9.70453 1.57438,0.13822 1.73003,2.02439 8.12533,-3.77699 -0.5527,-1.98239 -1.35684,-3.06023 -2.33679,-3.96343 -2.08839,1.1132 -2.02308,1.50218 -3.16417,2.13418 l -1.00711,-1.15872 c 0.54996,-0.86275 1.3563,-1.68263 2.56177,-3.19668 -1.07586,-1.3181 -2.03809,-2.68143 -3.81317,-3.72125 -0.11843,0.0893 -0.28042,0.18072 -0.44091,0.31519 -0.79071,0.66273 -2.04034,1.63685 -2.63017,2.26735 z" />
  <g
     id="g3910"
     transform="rotate(45,-171.17485,236.28874)"
     style="fill:none;fill-opacity:1;stroke:#5d5d5d;stroke-width:1.05833;stroke-miterlimit:4;stroke-dasharray:none;stroke-opacity:1">
    <path
       id="path3904"
       style="fill:none;fill-opacity:1;stroke:#5d5d5d;stroke-width:1.05833;stroke-linecap:butt;stroke-linejoin:miter;stroke-miterlimit:4;stroke-dasharray:none;stroke-opacity:1"
       d="m 36.179408,107.56906 c 3.169718,-0.68509 11.866134,-1.23679 17.379068,-0.0935 m -17.379068,0.0935 c -2.167258,-3.6926 -8.41512,-6.76103 -6.304077,-13.112058 1.253873,-3.772252 4.76337,-6.229814 11.992333,-4.015697 l 0.300773,-1.718746 h -2.375541 v -4.484518 h 2.633396 v -2.69299 h 4.571296 v 2.614001 h 2.649609 v 4.570412 h -2.370199 l 0.31307,1.8145 c 9.054503,-3.427852 11.749561,2.625428 12.156306,4.398751 1.3428,7.497155 -3.802799,7.679495 -6.187898,12.532805 3.48376,1.25924 2.71485,3.43386 2.71485,6.65798 l -23.111848,-0.0422 c 0.0099,-1.04839 -0.03348,-2.4432 0.239423,-3.71719 0.272904,-1.27399 1.215439,-2.41915 2.778507,-2.80503 z" />
    <path
       style="fill:none;fill-opacity:1;stroke:#5d5d5d;stroke-width:1.05833;stroke-linecap:butt;stroke-linejoin:miter;stroke-miterlimit:4;stroke-dasharray:none;stroke-opacity:1"
       d="m 42.0347,102.74706 v -6.098662 c -3.205232,-2.085078 -4.706114,-1.676461 -5.93344,0 -0.312977,0.794642 -0.173268,1.286233 0,1.755357 l 3.725455,4.354695 z"
       id="path3906" />
    <path
       style="fill:none;fill-opacity:1;stroke:#5d5d5d;stroke-width:1.05833;stroke-linecap:butt;stroke-linejoin:miter;stroke-miterlimit:4;stroke-dasharray:none;stroke-opacity:1"
       d="m 47.567186,102.60875 v -6.098655 c 3.205232,-2.085078 4.706114,-1.676461 5.93344,0 0.312977,0.794642 0.173268,1.286233 0,1.755357 l -3.725455,4.354688 z"
       id="path3908" />
  </g>
  <path
     id="path2936"
     style="fill:none;fill-opacity:1;stroke:#000000;stroke-width:1.05833;stroke-linecap:round;stroke-linejoin:round;stroke-miterlimit:4;stroke-dasharray:none;stroke-opacity:0.988235"
     d="m 26.69294,285.50527 c -0.008,-2.16752 1.277113,-4.17474 3.279583,-5.05871 2.002477,-0.88396 4.309215,-0.48484 5.840164,1.01052 1.530971,1.49533 1.983131,3.79093 1.144792,5.81196 -0.838339,2.02103 -2.801239,3.36748 -4.969667,3.40893 m 0,0 0.642852,3.1127 -0.754306,0.77086 -1.531749,0.48567 -1.730078,-1.63222 c -4.561828,5.83901 1.713362,9.485 -4.377571,14.3438 L 9.7054136,293.21267 c 5.7130624,-6.19575 8.4300714,0.0804 14.4361934,-4.24752 l -1.676331,-1.65441 0.31018,-1.30994 1.007379,-1.01445 2.910261,0.51912" />
  <path
     id="path3312"
     style="fill:none;fill-opacity:1;stroke:#000000;stroke-width:1.05833;stroke-linecap:round;stroke-linejoin:round;stroke-miterlimit:4;stroke-dasharray:none;stroke-opacity:0.988235"
     d="m 291.27628,232.58865 c -0.008,-2.16753 1.27712,-4.17474 3.27959,-5.05871 2.00248,-0.88397 4.30922,-0.48485 5.84017,1.01051 1.53097,1.49533 1.98312,3.79094 1.14478,5.81197 -0.83833,2.02102 -2.80123,3.36747 -4.96966,3.40892 m 0,0 0.64285,3.11271 -0.7543,0.77085 -1.53175,0.48567 -1.73008,-1.63222 c -4.56182,5.839 1.71337,9.485 -4.37757,14.3438 l -14.53155,-14.54611 c 5.71306,-6.19574 8.43007,0.0804 14.4362,-4.24752 l -1.67633,-1.65441 0.31018,-1.30994 1.00738,-1.01445 2.91026,0.51912" />
  <g
     id="g1673"
     transform="rotate(45,-110.36821,379.32564)"
     style="stroke:#5d5d5d;stroke-opacity:1">
    <path
       id="path2988"
       style="fill:none;fill-opacity:1;stroke:#5d5d5d;stroke-width:1.05833;stroke-linecap:butt;stroke-linejoin:miter;stroke-miterlimit:4;stroke-dasharray:none;stroke-opacity:1"
       d="m 27.682381,42.789467 c 3.169718,-0.68509 11.866134,-1.23679 17.379068,-0.0935 m -17.379068,0.0935 c -2.167258,-3.6926 -8.41512,-6.76103 -6.304077,-13.112058 1.253873,-3.772252 4.76337,-6.229814 11.992333,-4.015697 l 0.300773,-1.718746 h -2.375541 v -4.484518 h 2.633396 v -2.69299 h 4.571296 v 2.614001 h 2.649609 v 4.570412 h -2.370199 l 0.31307,1.8145 c 9.054503,-3.427852 11.749561,2.625428 12.156306,4.398751 1.3428,7.497155 -3.802799,7.679495 -6.187898,12.532805 3.48376,1.25924 2.71485,3.43386 2.71485,6.65798 l -23.111848,-0.0422 c 0.0099,-1.04839 -0.03348,-2.4432 0.239423,-3.71719 0.272904,-1.27399 1.215439,-2.41915 2.778507,-2.80503 z" />
    <path
       style="fill:none;fill-opacity:1;stroke:#5d5d5d;stroke-width:1.05833;stroke-linecap:butt;stroke-linejoin:miter;stroke-miterlimit:4;stroke-dasharray:none;stroke-opacity:1"
       d="m 33.537673,37.967467 v -6.098662 c -3.205232,-2.085078 -4.706114,-1.676461 -5.93344,0 -0.312977,0.794642 -0.173268,1.286233 0,1.755357 l 3.725455,4.354695 z"
       id="path2990" />
    <path
       style="fill:none;fill-opacity:1;stroke:#5d5d5d;stroke-width:1.05833;stroke-linecap:butt;stroke-linejoin:miter;stroke-miterlimit:4;stroke-dasharray:none;stroke-opacity:1"
       d="m 39.070159,37.829157 v -6.098655 c 3.205232,-2.085078 4.706114,-1.676461 5.93344,0 0.312977,0.794642 0.173268,1.286233 0,1.755357 l -3.725455,4.354688 z"
       id="path2992" />
  </g>
  <g
     id="g71126"
     transform="rotate(45,-52.190155,377.30992)"
     style="fill:none;fill-opacity:1;stroke:#000000;stroke-width:1.05833;stroke-miterlimit:4;stroke-dasharray:none;stroke-opacity:0.988235">
    <path
       id="path71122"
       style="fill:none;fill-opacity:1;stroke:#000000;stroke-width:1.05833;stroke-linecap:butt;stroke-linejoin:miter;stroke-miterlimit:4;stroke-dasharray:none;stroke-opacity:0.988235"
       d="m 11.723752,118.75131 c 5.996166,-1.01477 11.724006,-0.84948 17.299866,-0.0158 m -18.072315,-5.40938 c 0.693541,-0.53891 1.116975,-1.45173 1.622492,-2.25093 0.675988,-0.20883 1.666914,-0.3314 2.816563,-0.41051 1.623685,-0.93396 2.16149,-1.84555 3.264891,-2.72188 2.003565,3.13279 -6.337373,6.12526 -6.931497,10.8085 -3.9975879,1.565 -2.6704579,4.85699 -2.9795679,6.77953 l 22.9812839,-0.0558 c 0.521428,-5.28256 -1.304627,-5.78774 -2.70185,-6.73956 4.979537,-13.44152 -2.483592,-21.572786 -10.68044,-22.03356 l -2.727067,-2.817529 c -2.319128,-0.385056 -1.889252,2.29885 -2.5167,3.363329 -3.055974,2.603282 -2.723113,4.16453 -3.5843459,5.71303 -1.33592,2.40198 -2.931973,4.17664 -3.973287,6.18447 -1.109871,3.12628 3.299567,4.22511 5.4095249,4.18091 z" />
    <path
       id="path71124"
       style="fill:none;fill-opacity:1;stroke:#000000;stroke-width:1.05833;stroke-linecap:round;stroke-linejoin:round;stroke-miterlimit:4;stroke-dasharray:none;stroke-opacity:0.988235"
       d="m 16.345931,101.74416 c 0.06891,0.43421 -0.350894,0.83118 -1.002739,0.7869 -0.651845,-0.0443 -0.86521,-0.0789 -1.772475,0.27977 -0.333933,0.13202 1.07018,-1.97498 1.400989,-1.93398 0.814268,-0.28962 1.305314,0.4331 1.374225,0.86731 z" />
  </g>
  <g
     id="g3191"
     transform="rotate(45,-79.593735,311.15182)"
     style="fill:none;fill-opacity:1;stroke:#5d5d5d;stroke-width:1.05833;stroke-miterlimit:4;stroke-dasharray:none;stroke-opacity:1">
    <path
       id="path3187"
       style="fill:none;fill-opacity:1;stroke:#5d5d5d;stroke-width:1.05833;stroke-linecap:butt;stroke-linejoin:miter;stroke-miterlimit:4;stroke-dasharray:none;stroke-opacity:1"
       d="m 11.723752,118.75131 c 5.996166,-1.01477 11.724006,-0.84948 17.299866,-0.0158 m -18.072315,-5.40938 c 0.693541,-0.53891 1.116975,-1.45173 1.622492,-2.25093 0.675988,-0.20883 1.666914,-0.3314 2.816563,-0.41051 1.623685,-0.93396 2.16149,-1.84555 3.264891,-2.72188 2.003565,3.13279 -6.337373,6.12526 -6.931497,10.8085 -3.9975879,1.565 -2.6704579,4.85699 -2.9795679,6.77953 l 22.9812839,-0.0558 c 0.521428,-5.28256 -1.304627,-5.78774 -2.70185,-6.73956 4.979537,-13.44152 -2.483592,-21.572786 -10.68044,-22.03356 l -2.727067,-2.817529 c -2.319128,-0.385056 -1.889252,2.29885 -2.5167,3.363329 -3.055974,2.603282 -2.723113,4.16453 -3.5843459,5.71303 -1.33592,2.40198 -2.931973,4.17664 -3.973287,6.18447 -1.109871,3.12628 3.299567,4.22511 5.4095249,4.18091 z" />
    <path
       id="path3189"
       style="fill:none;fill-opacity:1;stroke:#5d5d5d;stroke-width:1.05833;stroke-linecap:round;stroke-linejoin:round;stroke-miterlimit:4;stroke-dasharray:none;stroke-opacity:1"
       d="m 16.345931,101.74416 c 0.06891,0.43421 -0.350894,0.83118 -1.002739,0.7869 -0.651845,-0.0443 -0.86521,-0.0789 -1.772475,0.27977 -0.333933,0.13202 1.07018,-1.97498 1.400989,-1.93398 0.814268,-0.28962 1.305314,0.4331 1.374225,0.86731 z" />
  </g>
  <path
     id="path3203"
     style="fill:none;fill-opacity:1;stroke:#000000;stroke-width:1.05833;stroke-linecap:round;stroke-linejoin:round;stroke-miterlimit:4;stroke-dasharray:none;stroke-opacity:0.988235"
     d="m 79.609604,232.58864 c -0.008,-2.16752 1.277113,-4.17474 3.279582,-5.0587 2.002484,-0.88397 4.309229,-0.48485 5.840172,1.0105 1.530971,1.49533 1.983123,3.79094 1.144785,5.81197 -0.838332,2.02103 -2.801232,3.36747 -4.96966,3.40892 m 0,0 0.642845,3.11271 -0.754299,0.77085 -1.531749,0.48567 -1.730078,-1.63222 c -4.561822,5.839 1.713369,9.485 -4.377571,14.34381 l -14.531534,-14.5461 c 5.713058,-6.19574 8.430058,0.0804 14.436188,-4.24753 l -1.676338,-1.65442 0.310189,-1.30993 1.00738,-1.01445 2.910251,0.51911" />
  <path
     id="path69857"
     style="fill:none;fill-opacity:1;stroke:#5d5d5d;stroke-width:1.05833;stroke-linecap:butt;stroke-linejoin:miter;stroke-miterlimit:4;stroke-dasharray:none;stroke-opacity:1"
     d="m 15.454573,239.94149 c 3.16832,2.89871 6.223997,5.88093 9.141519,8.96559 m 13.118224,-18.16309 c 0.942121,-0.95202 1.167455,-2.51377 0.447818,-3.69645 -0.719651,-1.18268 -2.157503,-1.71525 -3.48173,-1.2896 -1.324227,0.42565 -1.849855,1.47516 -2.206308,2.55866 -8.984654,-0.95562 -16.337271,3.53998 -17.019523,11.62489 -4.567337,-4.04238 -7.033782,0.10879 -8.5473016,1.3541 l 16.3304476,16.46763 c 2.266871,-2.38623 4.906282,-3.9186 1.358388,-8.85614 4.2241,-0.23722 12.036131,-2.90024 11.724912,-15.14114 -5.256427,0.94672 -7.183618,4.06018 -9.330161,5.49774 l -1.510522,-1.56186 c 2.982577,-3.01129 6.453057,-5.71436 12.234016,-6.95787 z" />
  <g
     id="g2928"
     transform="rotate(45,63.65733,476.3217)"
     style="fill:none;fill-opacity:1;stroke:#5d5d5d;stroke-width:1.05833;stroke-miterlimit:4;stroke-dasharray:none;stroke-opacity:1">
    <path
       id="path2924"
       style="fill:none;fill-opacity:1;stroke:#5d5d5d;stroke-width:1.05833;stroke-linecap:butt;stroke-linejoin:miter;stroke-miterlimit:4;stroke-dasharray:none;stroke-opacity:1"
       d="m 11.723752,118.75131 c 5.996166,-1.01477 11.724006,-0.84948 17.299866,-0.0158 m -18.072315,-5.40938 c 0.693541,-0.53891 1.116975,-1.45173 1.622492,-2.25093 0.675988,-0.20883 1.666914,-0.3314 2.816563,-0.41051 1.623685,-0.93396 2.16149,-1.84555 3.264891,-2.72188 2.003565,3.13279 -6.337373,6.12526 -6.931497,10.8085 -3.9975879,1.565 -2.6704579,4.85699 -2.9795679,6.77953 l 22.9812839,-0.0558 c 0.521428,-5.28256 -1.304627,-5.78774 -2.70185,-6.73956 4.979537,-13.44152 -2.483592,-21.572786 -10.68044,-22.03356 l -2.727067,-2.817529 c -2.319128,-0.385056 -1.889252,2.29885 -2.5167,3.363329 -3.055974,2.603282 -2.723113,4.16453 -3.5843459,5.71303 -1.33592,2.40198 -2.931973,4.17664 -3.973287,6.18447 -1.109871,3.12628 3.299567,4.22511 5.4095249,4.18091 z" />
    <path
       id="path2926"
       style="fill:none;fill-opacity:1;stroke:#5d5d5d;stroke-width:1.05833;stroke-linecap:round;stroke-linejoin:round;stroke-miterlimit:4;stroke-dasharray:none;stroke-opacity:1"
       d="m 16.345931,101.74416 c 0.06891,0.43421 -0.350894,0.83118 -1.002739,0.7869 -0.651845,-0.0443 -0.86521,-0.0789 -1.772475,0.27977 -0.333933,0.13202 1.07018,-1.97498 1.400989,-1.93398 0.814268,-0.28962 1.305314,0.4331 1.374225,0.86731 z" />
  </g>
  <path
     id="path3314"
     style="fill:none;fill-opacity:1;stroke:#000000;stroke-width:1.05833;stroke-linecap:butt;stroke-linejoin:miter;stroke-miterlimit:4;stroke-dasharray:none;stroke-opacity:0.988235"
     d="m 227.12124,187.02482 c 3.16832,2.89871 6.22399,5.88093 9.14152,8.96559 m 13.11823,-18.16309 c 0.94213,-0.95202 1.16745,-2.51377 0.44781,-3.69645 -0.71965,-1.18268 -2.1575,-1.71525 -3.48173,-1.2896 -1.32422,0.42565 -1.84986,1.47516 -2.2063,2.55866 -8.98466,-0.95562 -16.33727,3.53998 -17.01953,11.62489 -4.56734,-4.04238 -7.03378,0.10879 -8.54729,1.35411 l 16.33044,16.46762 c 2.26687,-2.38623 4.90628,-3.91859 1.35838,-8.85614 4.22409,-0.23721 12.03613,-2.90023 11.72492,-15.14114 -5.25643,0.94673 -7.18362,4.0602 -9.33016,5.49774 l -1.51052,-1.56185 c 2.98257,-3.01129 6.45305,-5.71437 12.23402,-6.95786 z" />
  <path
     id="path2944"
     style="fill:none;fill-opacity:1;stroke:#5d5d5d;stroke-width:1.05833;stroke-linecap:butt;stroke-linejoin:miter;stroke-miterlimit:4;stroke-dasharray:none;stroke-opacity:1"
     d="m 182.60183,177.18807 c 5.42149,4.51955 7.94675,7.43319 9.53722,9.82849 m -19.37638,-1.94181 c 4.10273,3.35765 8.49641,7.05147 11.74758,11.64632 m 3.89275,-21.86208 c -0.007,-0.95176 1.05143,-2.0774 1.77316,-3.12584 -1.55423,-1.73143 -2.54245,-1.98215 -3.79485,-2.45664 -5.38458,6.17259 -4.48618,5.85133 -3.77946,7.91154 l -9.83916,7.88668 c -1.90031,-1.18767 -3.66446,-1.42831 -7.10714,2.31548 l 16.28507,16.31448 c 1.59369,-1.93533 4.47849,-3.18315 2.56963,-6.98363 2.21502,-3.13463 5.17633,-6.38059 7.62882,-9.70453 1.57438,0.13822 1.73003,2.02439 8.12533,-3.77699 -0.5527,-1.98239 -1.35684,-3.06023 -2.33679,-3.96343 -2.08839,1.1132 -2.02308,1.50218 -3.16417,2.13418 l -1.00711,-1.15872 c 0.54996,-0.86275 1.3563,-1.68263 2.56177,-3.19668 -1.07586,-1.3181 -2.03809,-2.68143 -3.81317,-3.72125 -0.11843,0.0893 -0.28042,0.18072 -0.44091,0.31519 -0.79071,0.66273 -2.04034,1.63685 -2.63017,2.26735 z" />
  <path
     id="path2852"
     style="fill:none;fill-opacity:1;stroke:#000000;stroke-width:1.05833;stroke-linecap:round;stroke-linejoin:round;stroke-miterlimit:4;stroke-dasharray:none;stroke-opacity:0.988235"
     d="m 132.52628,179.67197 c -0.008,-2.16752 1.27711,-4.17474 3.27958,-5.05871 2.00248,-0.88396 4.30922,-0.48484 5.84017,1.01052 1.53097,1.49533 1.98313,3.79093 1.14479,5.81196 -0.83834,2.02103 -2.80124,3.36748 -4.96967,3.40893 m 0,0 0.64285,3.1127 -0.7543,0.77086 -1.53175,0.48567 -1.73008,-1.63222 c -4.56183,5.83901 1.71336,9.485 -4.37757,14.3438 l -14.53155,-14.54611 c 5.71307,-6.19575 8.43007,0.0804 14.4362,-4.24752 l -1.67633,-1.65441 0.31018,-1.30994 1.00738,-1.01445 2.91026,0.51912" />
  <path
     id="path2850"
     style="fill:none;fill-opacity:1;stroke:#5d5d5d;stroke-width:1.05833;stroke-linecap:butt;stroke-linejoin:miter;stroke-miterlimit:4;stroke-dasharray:none;stroke-opacity:1"
     d="m 77.827822,177.18807 c 5.421498,4.51955 7.946746,7.43319 9.537213,9.82848 m -19.376368,-1.9418 c 4.10272,3.35764 8.496413,7.05147 11.74757,11.64631 m 3.892757,-21.86208 c -0.007,-0.95175 1.051426,-2.07739 1.773155,-3.12583 -1.554224,-1.73143 -2.542442,-1.98215 -3.794841,-2.45663 -5.384577,6.17259 -4.486187,5.85132 -3.779465,7.91153 l -9.839155,7.88668 c -1.90031,-1.18766 -3.664457,-1.4283 -7.107141,2.31548 l 16.285064,16.31448 c 1.593691,-1.93534 4.478489,-3.18315 2.569633,-6.98363 2.215012,-3.13464 5.176326,-6.38059 7.62882,-9.70454 1.57438,0.13822 1.730021,2.02439 8.125328,-3.77699 -0.552703,-1.98238 -1.356839,-3.06023 -2.33679,-3.96343 -2.08839,1.11321 -2.023082,1.50219 -3.164168,2.13418 l -1.007118,-1.15872 c 0.549966,-0.86275 1.356301,-1.68263 2.56177,-3.19668 -1.075856,-1.31809 -2.03808,-2.68142 -3.813165,-3.72124 -0.118434,0.0893 -0.280418,0.18072 -0.44091,0.31519 -0.790715,0.66272 -2.040342,1.63685 -2.630175,2.26734 z" />
  <path
     id="path3888"
     style="fill:none;fill-opacity:1;stroke:#000000;stroke-width:1.05833;stroke-linecap:butt;stroke-linejoin:miter;stroke-miterlimit:4;stroke-dasharray:none;stroke-opacity:0.988235"
     d="m 14.36337,185.79291 c 5.366163,3.85026 11.528584,11.01395 11.431018,11.46297 m 13.323935,-11.00613 c 1.43397,-0.062 2.740654,0.79415 3.251482,2.13037 0.510807,1.33622 0.112769,2.8569 -0.990466,3.78397 -1.103235,0.92708 -2.671046,1.02641 -3.896137,0.2904 l -11.688807,4.8014 c 1.469771,2.2266 0.92107,3.69871 -0.016,4.82526 l -2.315138,2.43917 -16.1888711,-16.20019 2.8447121,-2.69996 c 2.418277,-1.13941 3.57847,-0.0943 4.24438,0.17262 1.611468,-3.0865 2.812228,-7.10993 5.027685,-11.54009 -0.814467,-1.18123 -0.789704,-2.74409 0.0616,-3.88538 0.851293,-1.1413 2.33971,-1.60717 3.700389,-1.1582 1.36065,0.44895 2.290877,1.71291 2.312621,3.14227 0.0217,1.42936 -0.869862,2.70619 -2.216575,3.17432 l -0.108753,3.83904 5.550887,-4.75416 c -0.572841,-1.43138 -0.142623,-3.06649 1.059409,-4.02643 1.202032,-0.95992 2.892746,-1.01857 4.163332,-0.14442 1.270593,0.87416 1.82179,2.47524 1.357291,3.94262 -0.464498,1.46734 -1.83526,2.45536 -3.375473,2.43297 l -2.798587,5.93295 5.861957,-2.75946 c -7.99e-4,-0.002 0,-0.004 -7.07e-4,-0.006 -0.0999,-1.53485 0.8197,-2.9462 2.26183,-3.47003 1.444195,-0.52458 3.068306,-0.0341 3.991469,1.20532 0.923149,1.23947 0.925384,2.93264 0.006,4.16115 -0.919917,1.2285 -2.54277,1.69964 -3.988343,1.15787 l -4.817137,5.62403 3.750989,0.023 c 0.41754,-1.37637 1.521461,-2.37194 2.95541,-2.43392 z" />
  <path
     id="path2920"
     style="fill:none;fill-opacity:1;stroke:#000000;stroke-width:1.05833;stroke-linecap:butt;stroke-linejoin:miter;stroke-miterlimit:4;stroke-dasharray:none;stroke-opacity:0.988235"
     d="m 280.03791,134.10816 c 3.16832,2.89872 6.224,5.88094 9.14152,8.9656 m 13.11823,-18.16309 c 0.94213,-0.95202 1.16745,-2.51378 0.44782,-3.69646 -0.71966,-1.18267 -2.15751,-1.71525 -3.48173,-1.2896 -1.32423,0.42565 -1.84986,1.47516 -2.20631,2.55867 -8.98466,-0.95562 -16.33727,3.53997 -17.01953,11.62488 -4.56733,-4.04238 -7.03378,0.10879 -8.54729,1.35411 l 16.33044,16.46762 c 2.26687,-2.38623 4.90628,-3.91859 1.35839,-8.85613 4.2241,-0.23722 12.03613,-2.90025 11.72491,-15.14115 -5.25643,0.94673 -7.18361,4.0602 -9.33016,5.49774 l -1.51052,-1.56185 c 2.98257,-3.01129 6.45305,-5.71436 12.23402,-6.95786 z" />
  <path
     id="path2870"
     style="fill:none;fill-opacity:1;stroke:#5d5d5d;stroke-width:1.05833;stroke-linecap:butt;stroke-linejoin:miter;stroke-miterlimit:4;stroke-dasharray:none;stroke-opacity:1"
     d="m 226.03004,132.87625 c 5.36616,3.85026 11.52858,11.01395 11.43102,11.46297 m 13.32393,-11.00613 c 1.43397,-0.062 2.74066,0.79415 3.25149,2.13037 0.5108,1.33622 0.11276,2.8569 -0.99047,3.78397 -1.10324,0.92708 -2.67105,1.02641 -3.89614,0.2904 l -11.68881,4.8014 c 1.46978,2.2266 0.92108,3.69871 -0.016,4.82526 l -2.31514,2.43917 -16.18887,-16.20019 2.84472,-2.69996 c 2.41827,-1.13941 3.57847,-0.0943 4.24438,0.17262 1.61146,-3.0865 2.81222,-7.10993 5.02768,-11.54009 -0.81447,-1.18123 -0.7897,-2.74409 0.0616,-3.88538 0.8513,-1.1413 2.33971,-1.60717 3.70039,-1.1582 1.36065,0.44895 2.29088,1.71291 2.31262,3.14227 0.0217,1.42936 -0.86986,2.70619 -2.21657,3.17432 l -0.10875,3.83904 5.55088,-4.75416 c -0.57284,-1.43138 -0.14262,-3.06649 1.05941,-4.02643 1.20203,-0.95992 2.89274,-1.01858 4.16333,-0.14442 1.2706,0.87416 1.82179,2.47524 1.3573,3.94262 -0.4645,1.46734 -1.83527,2.45536 -3.37548,2.43297 l -2.79859,5.93295 5.86196,-2.75946 c -8e-4,-0.002 0,-0.004 -7e-4,-0.006 -0.0999,-1.53485 0.8197,-2.94619 2.26183,-3.47003 1.44419,-0.52458 3.06831,-0.0341 3.99146,1.20532 0.92316,1.23948 0.92539,2.93264 0.006,4.16115 -0.91991,1.22851 -2.54277,1.69964 -3.98834,1.15787 l -4.81714,5.62403 3.75099,0.023 c 0.41754,-1.37636 1.52146,-2.37194 2.95541,-2.43392 z" />
  <g
     id="g2970"
     transform="rotate(45,73.243446,284.36041)"
     style="fill:none;fill-opacity:1;stroke:#000000;stroke-width:1.05833;stroke-miterlimit:4;stroke-dasharray:none;stroke-opacity:0.988235">
    <path
       id="path2964"
       style="fill:none;fill-opacity:1;stroke:#000000;stroke-width:1.05833;stroke-linecap:butt;stroke-linejoin:miter;stroke-miterlimit:4;stroke-dasharray:none;stroke-opacity:0.988235"
       d="m 36.179408,107.56906 c 3.169718,-0.68509 11.866134,-1.23679 17.379068,-0.0935 m -17.379068,0.0935 c -2.167258,-3.6926 -8.41512,-6.76103 -6.304077,-13.112058 1.253873,-3.772252 4.76337,-6.229814 11.992333,-4.015697 l 0.300773,-1.718746 h -2.375541 v -4.484518 h 2.633396 v -2.69299 h 4.571296 v 2.614001 h 2.649609 v 4.570412 h -2.370199 l 0.31307,1.8145 c 9.054503,-3.427852 11.749561,2.625428 12.156306,4.398751 1.3428,7.497155 -3.802799,7.679495 -6.187898,12.532805 3.48376,1.25924 2.71485,3.43386 2.71485,6.65798 l -23.111848,-0.0422 c 0.0099,-1.04839 -0.03348,-2.4432 0.239423,-3.71719 0.272904,-1.27399 1.215439,-2.41915 2.778507,-2.80503 z" />
    <path
       style="fill:none;fill-opacity:1;stroke:#000000;stroke-width:1.05833;stroke-linecap:butt;stroke-linejoin:miter;stroke-miterlimit:4;stroke-dasharray:none;stroke-opacity:0.988235"
       d="m 42.0347,102.74706 v -6.098662 c -3.205232,-2.085078 -4.706114,-1.676461 -5.93344,0 -0.312977,0.794642 -0.173268,1.286233 0,1.755357 l 3.725455,4.354695 z"
       id="path2966" />
    <path
       style="fill:none;fill-opacity:1;stroke:#000000;stroke-width:1.05833;stroke-linecap:butt;stroke-linejoin:miter;stroke-miterlimit:4;stroke-dasharray:none;stroke-opacity:0.988235"
       d="m 47.567186,102.60875 v -6.098655 c 3.205232,-2.085078 4.706114,-1.676461 5.93344,0 0.312977,0.794642 0.173268,1.286233 0,1.755357 l -3.725455,4.354688 z"
       id="path2968" />
  </g>
  <path
     id="path3008"
     style="fill:none;fill-opacity:1;stroke:#5d5d5d;stroke-width:1.05833;stroke-linecap:butt;stroke-linejoin:miter;stroke-miterlimit:4;stroke-dasharray:none;stroke-opacity:1"
     d="m 121.2879,134.10816 c 3.16832,2.89871 6.22399,5.88093 9.14152,8.96559 m 13.11823,-18.16309 c 0.94212,-0.95202 1.16745,-2.51377 0.44781,-3.69645 -0.71965,-1.18268 -2.1575,-1.71525 -3.48173,-1.2896 -1.32422,0.42565 -1.84986,1.47516 -2.2063,2.55866 -8.98466,-0.95562 -16.33727,3.53998 -17.01953,11.62489 -4.56734,-4.04238 -7.03378,0.10879 -8.54729,1.35411 l 16.33044,16.46762 c 2.26687,-2.38623 4.90628,-3.91859 1.35838,-8.85614 4.2241,-0.23722 12.03614,-2.90024 11.72492,-15.14114 -5.25643,0.94673 -7.18362,4.06019 -9.33016,5.49774 l -1.51052,-1.56185 c 2.98257,-3.01129 6.45305,-5.71437 12.23402,-6.95786 z" />
  <g
     id="g2868"
     transform="rotate(45,21.70006,194.3591)"
     style="fill:none;fill-opacity:1;stroke:#000000;stroke-width:1.05833;stroke-miterlimit:4;stroke-dasharray:none;stroke-opacity:0.988235">
    <path
       id="path2864"
       style="fill:none;fill-opacity:1;stroke:#000000;stroke-width:1.05833;stroke-linecap:butt;stroke-linejoin:miter;stroke-miterlimit:4;stroke-dasharray:none;stroke-opacity:0.988235"
       d="m 11.723752,118.75131 c 5.996166,-1.01477 11.724006,-0.84948 17.299866,-0.0158 m -18.072315,-5.40938 c 0.693541,-0.53891 1.116975,-1.45173 1.622492,-2.25093 0.675988,-0.20883 1.666914,-0.3314 2.816563,-0.41051 1.623685,-0.93396 2.16149,-1.84555 3.264891,-2.72188 2.003565,3.13279 -6.337373,6.12526 -6.931497,10.8085 -3.9975879,1.565 -2.6704579,4.85699 -2.9795679,6.77953 l 22.9812839,-0.0558 c 0.521428,-5.28256 -1.304627,-5.78774 -2.70185,-6.73956 4.979537,-13.44152 -2.483592,-21.572786 -10.68044,-22.03356 l -2.727067,-2.817529 c -2.319128,-0.385056 -1.889252,2.29885 -2.5167,3.363329 -3.055974,2.603282 -2.723113,4.16453 -3.5843459,5.71303 -1.33592,2.40198 -2.931973,4.17664 -3.973287,6.18447 -1.109871,3.12628 3.299567,4.22511 5.4095249,4.18091 z" />
    <path
       id="path2866"
       style="fill:none;fill-opacity:1;stroke:#000000;stroke-width:1.05833;stroke-linecap:round;stroke-linejoin:round;stroke-miterlimit:4;stroke-dasharray:none;stroke-opacity:0.988235"
       d="m 16.345931,101.74416 c 0.06891,0.43421 -0.350894,0.83118 -1.002739,0.7869 -0.651845,-0.0443 -0.86521,-0.0789 -1.772475,0.27977 -0.333933,0.13202 1.07018,-1.97498 1.400989,-1.93398 0.814268,-0.28962 1.305314,0.4331 1.374225,0.86731 z" />
  </g>
  <g
     id="g3894"
     transform="rotate(45,-4.7582751,130.48303)"
     style="fill:none;fill-opacity:1;stroke:#5d5d5d;stroke-width:1.05833;stroke-miterlimit:4;stroke-dasharray:none;stroke-opacity:1">
    <path
       id="path3890"
       style="fill:none;fill-opacity:1;stroke:#5d5d5d;stroke-width:1.05833;stroke-linecap:butt;stroke-linejoin:miter;stroke-miterlimit:4;stroke-dasharray:none;stroke-opacity:1"
       d="m 11.723752,118.75131 c 5.996166,-1.01477 11.724006,-0.84948 17.299866,-0.0158 m -18.072315,-5.40938 c 0.693541,-0.53891 1.116975,-1.45173 1.622492,-2.25093 0.675988,-0.20883 1.666914,-0.3314 2.816563,-0.41051 1.623685,-0.93396 2.16149,-1.84555 3.264891,-2.72188 2.003565,3.13279 -6.337373,6.12526 -6.931497,10.8085 -3.9975879,1.565 -2.6704579,4.85699 -2.9795679,6.77953 l 22.9812839,-0.0558 c 0.521428,-5.28256 -1.304627,-5.78774 -2.70185,-6.73956 4.979537,-13.44152 -2.483592,-21.572786 -10.68044,-22.03356 l -2.727067,-2.817529 c -2.319128,-0.385056 -1.889252,2.29885 -2.5167,3.363329 -3.055974,2.603282 -2.723113,4.16453 -3.5843459,5.71303 -1.33592,2.40198 -2.931973,4.17664 -3.973287,6.18447 -1.109871,3.12628 3.299567,4.22511 5.4095249,4.18091 z" />
    <path
       id="path3892"
       style="fill:none;fill-opacity:1;stroke:#5d5d5d;stroke-width:1.05833;stroke-linecap:round;stroke-linejoin:round;stroke-miterlimit:4;stroke-dasharray:none;stroke-opacity:1"
       d="m 16.345931,101.74416 c 0.06891,0.43421 -0.350894,0.83118 -1.002739,0.7869 -0.651845,-0.0443 -0.86521,-0.0789 -1.772475,0.27977 -0.333933,0.13202 1.07018,-1.97498 1.400989,-1.93398 0.814268,-0.28962 1.305314,0.4331 1.374225,0.86731 z" />
  </g>
  <path
     id="path2916"
     style="fill:none;fill-opacity:1;stroke:#5d5d5d;stroke-width:1.05833;stroke-linecap:butt;stroke-linejoin:miter;stroke-miterlimit:4;stroke-dasharray:none;stroke-opacity:1"
     d="m 278.94671,79.959565 c 5.36616,3.850267 11.52858,11.013952 11.43102,11.462979 m 13.32393,-11.006139 c 1.43397,-0.062 2.74066,0.794159 3.25149,2.130379 0.5108,1.336212 0.11277,2.856902 -0.99047,3.783961 -1.10323,0.927088 -2.67105,1.026415 -3.89614,0.290402 l -11.6888,4.801404 c 1.46977,2.226608 0.92107,3.698713 -0.016,4.825261 l -2.31514,2.439165 -16.18887,-16.200184 2.84472,-2.699967 c 2.41827,-1.139404 3.57847,-0.0943 4.24438,0.172619 1.61146,-3.086493 2.81222,-7.109924 5.02768,-11.540082 -0.81447,-1.181229 -0.7897,-2.744091 0.0616,-3.885382 0.8513,-1.141306 2.33971,-1.607176 3.70039,-1.158199 1.36065,0.44895 2.29088,1.712903 2.31262,3.14227 0.0217,1.429353 -0.86986,2.706189 -2.21657,3.174322 l -0.10875,3.839039 5.55088,-4.754162 c -0.57284,-1.431382 -0.14262,-3.066496 1.05941,-4.026429 1.20203,-0.959918 2.89275,-1.018573 4.16333,-0.144419 1.2706,0.874161 1.82179,2.475241 1.3573,3.942615 -0.4645,1.467346 -1.83526,2.455365 -3.37548,2.432971 l -2.79859,5.932951 5.86196,-2.759456 c -8e-4,-0.002 0,-0.0042 -7e-4,-0.0064 -0.0999,-1.534846 0.81969,-2.946196 2.26183,-3.470035 1.44419,-0.524574 3.0683,-0.0341 3.99146,1.205327 0.92315,1.239467 0.92539,2.932634 0.006,4.161147 -0.91992,1.228499 -2.54277,1.699644 -3.98835,1.157866 l -4.81713,5.624031 3.75099,0.02301 c 0.41754,-1.376362 1.52146,-2.37194 2.95541,-2.433918 z" />
  <g
     id="g4505"
     transform="rotate(45,163.70438,322.08361)"
     style="fill:none;fill-opacity:1;stroke:#000000;stroke-width:1.05833;stroke-miterlimit:4;stroke-dasharray:none;stroke-opacity:0.988235">
    <path
       id="path70748"
       style="fill:none;fill-opacity:1;stroke:#000000;stroke-width:1.05833;stroke-linecap:butt;stroke-linejoin:miter;stroke-miterlimit:4;stroke-dasharray:none;stroke-opacity:0.988235"
       d="m 36.179408,107.56906 c 3.169718,-0.68509 11.866134,-1.23679 17.379068,-0.0935 m -17.379068,0.0935 c -2.167258,-3.6926 -8.41512,-6.76103 -6.304077,-13.112058 1.253873,-3.772252 4.76337,-6.229814 11.992333,-4.015697 l 0.300773,-1.718746 h -2.375541 v -4.484518 h 2.633396 v -2.69299 h 4.571296 v 2.614001 h 2.649609 v 4.570412 h -2.370199 l 0.31307,1.8145 c 9.054503,-3.427852 11.749561,2.625428 12.156306,4.398751 1.3428,7.497155 -3.802799,7.679495 -6.187898,12.532805 3.48376,1.25924 2.71485,3.43386 2.71485,6.65798 l -23.111848,-0.0422 c 0.0099,-1.04839 -0.03348,-2.4432 0.239423,-3.71719 0.272904,-1.27399 1.215439,-2.41915 2.778507,-2.80503 z" />
    <path
       style="fill:none;fill-opacity:1;stroke:#000000;stroke-width:1.05833;stroke-linecap:butt;stroke-linejoin:miter;stroke-miterlimit:4;stroke-dasharray:none;stroke-opacity:0.988235"
       d="m 42.0347,102.74706 v -6.098662 c -3.205232,-2.085078 -4.706114,-1.676461 -5.93344,0 -0.312977,0.794642 -0.173268,1.286233 0,1.755357 l 3.725455,4.354695 z"
       id="path70750" />
    <path
       style="fill:none;fill-opacity:1;stroke:#000000;stroke-width:1.05833;stroke-linecap:butt;stroke-linejoin:miter;stroke-miterlimit:4;stroke-dasharray:none;stroke-opacity:0.988235"
       d="m 47.567186,102.60875 v -6.098655 c 3.205232,-2.085078 4.706114,-1.676461 5.93344,0 0.312977,0.794642 0.173268,1.286233 0,1.755357 l -3.725455,4.354688 z"
       id="path70752" />
  </g>
  <g
     id="g2956"
     transform="rotate(45,137.96314,294.37417)"
     style="fill:none;fill-opacity:1;stroke:#5d5d5d;stroke-width:1.05833;stroke-miterlimit:4;stroke-dasharray:none;stroke-opacity:1">
    <path
       id="path2952"
       style="fill:none;fill-opacity:1;stroke:#5d5d5d;stroke-width:1.05833;stroke-linecap:butt;stroke-linejoin:miter;stroke-miterlimit:4;stroke-dasharray:none;stroke-opacity:1"
       d="m 11.723752,118.75131 c 5.996166,-1.01477 11.724006,-0.84948 17.299866,-0.0158 m -18.072315,-5.40938 c 0.693541,-0.53891 1.116975,-1.45173 1.622492,-2.25093 0.675988,-0.20883 1.666914,-0.3314 2.816563,-0.41051 1.623685,-0.93396 2.16149,-1.84555 3.264891,-2.72188 2.003565,3.13279 -6.337373,6.12526 -6.931497,10.8085 -3.9975879,1.565 -2.6704579,4.85699 -2.9795679,6.77953 l 22.9812839,-0.0558 c 0.521428,-5.28256 -1.304627,-5.78774 -2.70185,-6.73956 4.979537,-13.44152 -2.483592,-21.572786 -10.68044,-22.03356 l -2.727067,-2.817529 c -2.319128,-0.385056 -1.889252,2.29885 -2.5167,3.363329 -3.055974,2.603282 -2.723113,4.16453 -3.5843459,5.71303 -1.33592,2.40198 -2.931973,4.17664 -3.973287,6.18447 -1.109871,3.12628 3.299567,4.22511 5.4095249,4.18091 z" />
    <path
       id="path2954"
       style="fill:none;fill-opacity:1;stroke:#5d5d5d;stroke-width:1.05833;stroke-linecap:round;stroke-linejoin:round;stroke-miterlimit:4;stroke-dasharray:none;stroke-opacity:1"
       d="m 16.345931,101.74416 c 0.06891,0.43421 -0.350894,0.83118 -1.002739,0.7869 -0.651845,-0.0443 -0.86521,-0.0789 -1.772475,0.27977 -0.333933,0.13202 1.07018,-1.97498 1.400989,-1.93398 0.814268,-0.28962 1.305314,0.4331 1.374225,0.86731 z" />
  </g>
  <path
     id="path2854"
     style="fill:none;fill-opacity:1;stroke:#000000;stroke-width:1.05833;stroke-linecap:butt;stroke-linejoin:miter;stroke-miterlimit:4;stroke-dasharray:none;stroke-opacity:0.988235"
     d="m 121.2879,81.191485 c 3.16832,2.898713 6.224,5.880936 9.14152,8.96559 m 13.11823,-18.163084 c 0.94213,-0.95202 1.16745,-2.513779 0.44782,-3.696457 -0.71966,-1.182679 -2.15751,-1.71525 -3.48173,-1.2896 -1.32423,0.42565 -1.84986,1.475159 -2.20631,2.558666 -8.98466,-0.95562 -16.33727,3.539974 -17.01953,11.624885 -4.56733,-4.042381 -7.03378,0.108788 -8.54729,1.354109 l 16.33044,16.467619 c 2.26687,-2.386231 4.90628,-3.918595 1.35839,-8.856138 4.2241,-0.23722 12.03613,-2.900241 11.72491,-15.141143 -5.25643,0.946724 -7.18361,4.060193 -9.33016,5.497741 l -1.51052,-1.561857 c 2.98257,-3.011285 6.45305,-5.714356 12.23402,-6.95786 z" />
  <path
     id="path69207"
     style="fill:none;fill-opacity:1;stroke:#5d5d5d;stroke-width:1.05833;stroke-linecap:round;stroke-linejoin:round;stroke-miterlimit:4;stroke-dasharray:none;stroke-opacity:1"
     d="m 79.609611,73.838625 c -0.008,-2.167509 1.277119,-4.17473 3.279589,-5.058699 2.00247,-0.883968 4.309215,-0.484841 5.840158,1.010506 1.530971,1.495332 1.98313,3.790933 1.144791,5.811965 -0.838338,2.021031 -2.801239,3.367476 -4.969666,3.408926 m 0,0 0.642852,3.112705 -0.754307,0.770853 -1.531748,0.485669 -1.730079,-1.632214 c -4.561828,5.839004 1.713363,9.485003 -4.37757,14.343802 L 62.622095,81.546036 c 5.713064,-6.195745 8.43006,0.08039 14.436189,-4.247523 l -1.676331,-1.654411 0.310183,-1.309941 1.007379,-1.014451 2.910251,0.519113" />
  <path
     id="path3920"
     style="fill:none;fill-opacity:1;stroke:#000000;stroke-width:1.05833;stroke-linecap:round;stroke-linejoin:round;stroke-miterlimit:4;stroke-dasharray:none;stroke-opacity:0.988235"
     d="m 26.692947,73.838637 c -0.008,-2.167515 1.277113,-4.174737 3.279576,-5.058712 2.002477,-0.883961 4.309222,-0.484835 5.840164,1.010512 1.530971,1.495333 1.983131,3.790934 1.144792,5.811965 -0.838332,2.021039 -2.801232,3.367483 -4.969667,3.408927 m 0,0 0.642852,3.112705 -0.754306,0.770852 -1.531749,0.485669 -1.730078,-1.632214 c -4.561828,5.839005 1.713362,9.485003 -4.377571,14.343802 L 9.7054136,81.546031 c 5.7130624,-6.195748 8.4300714,0.0804 14.4361934,-4.24752 l -1.676331,-1.654411 0.310187,-1.309936 1.007379,-1.014451 2.910261,0.519122" />
  <path
     id="path3004"
     style="fill:none;fill-opacity:1;stroke:#000000;stroke-width:1.05833;stroke-linecap:butt;stroke-linejoin:miter;stroke-miterlimit:4;stroke-dasharray:none;stroke-opacity:0.988235"
     d="m 278.94672,27.042939 c 5.36616,3.850295 11.52858,11.013994 11.43103,11.462993 M 303.7017,27.499826 c 1.43397,-0.06199 2.74065,0.794103 3.25147,2.130298 0.51082,1.336205 0.11278,2.856904 -0.99046,3.784004 -1.10324,0.927098 -2.67105,1.026407 -3.89614,0.2904 l -11.68881,4.801404 c 1.46977,2.226601 0.92107,3.698699 -0.016,4.825304 l -2.31517,2.439058 -16.18889,-16.200198 2.84471,-2.699903 c 2.41828,-1.139397 3.57848,-0.094 4.24438,0.172605 1.61147,-3.0865 2.81223,-7.109903 5.02769,-11.540103 -0.81447,-1.181201 -0.78971,-2.744101 0.0616,-3.885401 0.85129,-1.141302 2.33971,-1.607103 3.70039,-1.1582 1.36065,0.448996 2.29088,1.7129 2.31262,3.142299 0.0217,1.429398 -0.86987,2.706194 -2.21658,3.174295 l -0.10876,3.839106 5.5509,-4.754201 c -0.57284,-1.4314 -0.14262,-3.0665 1.05941,-4.026402 1.20203,-0.9599 2.89274,-1.018597 4.16332,-0.144401 1.2706,0.874103 1.82179,2.475199 1.3573,3.942601 -0.4645,1.467302 -1.83527,2.455297 -3.37548,2.432898 l -2.79859,5.933004 5.86197,-2.759499 c -7.7e-4,-4e-6 -1.4e-4,0 -10e-4,-0.01018 -0.0999,-1.534794 0.8197,-2.946198 2.26183,-3.469996 1.44419,-0.524599 3.06831,-0.034 3.99147,1.205299 0.92315,1.239497 0.92538,2.932697 0.006,4.161196 -0.91991,1.228503 -2.54277,1.699601 -3.98834,1.157803 l -4.81714,5.624104 3.75098,0.023 c 0.41755,-1.3764 1.52147,-2.372003 2.95542,-2.433907 z" />
  <path
     id="path2980"
     style="fill:none;fill-opacity:1;stroke:#5d5d5d;stroke-width:1.05833;stroke-linecap:butt;stroke-linejoin:miter;stroke-miterlimit:4;stroke-dasharray:none;stroke-opacity:1"
     d="m 227.12124,28.274838 c 3.16831,2.898706 6.22399,5.880929 9.14151,8.965583 m 13.11824,-18.16309 c 0.94212,-0.95202 1.16745,-2.513776 0.44781,-3.696454 -0.71965,-1.182679 -2.1575,-1.715252 -3.48173,-1.2896 -1.32423,0.425651 -1.84986,1.475157 -2.2063,2.558663 -8.98465,-0.955601 -16.33728,3.539987 -17.01953,11.624898 -4.56733,-4.042381 -7.03378,0.108789 -8.54729,1.35411 l 16.33043,16.467612 c 2.26687,-2.386231 4.90629,-3.918589 1.35839,-8.856139 4.2241,-0.23722 12.03612,-2.900234 11.72492,-15.14114 -5.25642,0.946723 -7.18362,4.060204 -9.33016,5.497745 l -1.51052,-1.561857 c 2.98257,-3.011281 6.45305,-5.714357 12.23402,-6.957862 z" />
  <path
     id="path3199"
     style="fill:none;fill-opacity:1;stroke:#000000;stroke-width:1.05833;stroke-linecap:butt;stroke-linejoin:miter;stroke-miterlimit:4;stroke-dasharray:none;stroke-opacity:0.988235"
     d="m 182.60185,18.438055 c 5.42149,4.519551 7.94675,7.433192 9.53722,9.828488 m -19.37638,-1.941805 c 4.10273,3.357647 8.49641,7.051467 11.74758,11.646318 M 188.403,16.108989 c -0.007,-0.951763 1.05143,-2.077393 1.77316,-3.125833 -1.55423,-1.731429 -2.54246,-1.982161 -3.79486,-2.456642 -5.38458,6.172596 -4.48618,5.851322 -3.77945,7.911541 l -9.83916,7.886683 c -1.90032,-1.18767 -3.66446,-1.428306 -7.10714,2.315478 l 16.28507,16.314488 c 1.59369,-1.935338 4.47849,-3.183154 2.56963,-6.983634 2.21501,-3.134633 5.17633,-6.380585 7.62882,-9.704534 1.57438,0.138211 1.73003,2.02439 8.12533,-3.77699 -0.5527,-1.98239 -1.35684,-3.06023 -2.33679,-3.963431 -2.08839,1.113207 -2.02308,1.502186 -3.16417,2.134182 l -1.00711,-1.158725 c 0.54996,-0.862746 1.3563,-1.68263 2.56176,-3.196675 -1.07586,-1.318109 -2.03808,-2.681432 -3.81315,-3.721256 -0.11843,0.0893 -0.28042,0.180719 -0.44091,0.315188 -0.79071,0.662727 -2.04033,1.636857 -2.63017,2.267352 z" />
  <path
     id="path2984"
     style="fill:none;fill-opacity:1;stroke:#5d5d5d;stroke-width:1.05833;stroke-linecap:butt;stroke-linejoin:miter;stroke-miterlimit:4;stroke-dasharray:none;stroke-opacity:1"
     d="m 130.74451,18.43805 c 5.42149,4.519565 7.94674,7.433192 9.53721,9.828491 m -19.37638,-1.941804 c 4.10273,3.357647 8.49642,7.051474 11.74758,11.646317 m 3.89273,-21.862058 c -0.007,-0.951763 1.05143,-2.0774 1.77316,-3.12584 -1.55423,-1.731429 -2.54245,-1.982154 -3.79485,-2.456635 -5.38458,6.172591 -4.48619,5.851324 -3.77945,7.911529 l -9.83917,7.886687 c -1.90031,-1.187664 -3.66446,-1.428306 -7.10714,2.315479 l 16.28507,16.314488 c 1.59369,-1.935337 4.47849,-3.183156 2.56963,-6.983636 2.21501,-3.134632 5.17632,-6.380578 7.62882,-9.704527 1.57438,0.138215 1.73003,2.024383 8.12533,-3.776995 -0.5527,-1.98239 -1.35684,-3.06023 -2.33679,-3.963431 -2.08839,1.113207 -2.02308,1.502186 -3.16417,2.134182 l -1.00711,-1.158725 c 0.54996,-0.862746 1.3563,-1.68263 2.56176,-3.196676 -1.07585,-1.318101 -2.03808,-2.681431 -3.81315,-3.721255 -0.11843,0.0893 -0.28042,0.180719 -0.44091,0.315188 -0.79071,0.662727 -2.04034,1.63685 -2.63017,2.267352 z" />
  <path
     id="path2948"
     style="fill:none;fill-opacity:1;stroke:#000000;stroke-width:1.05833;stroke-linecap:round;stroke-linejoin:round;stroke-miterlimit:4;stroke-dasharray:none;stroke-opacity:0.988235"
     d="m 79.60962,20.921979 c -0.008,-2.167513 1.277114,-4.174726 3.279578,-5.058702 2.002478,-0.883962 4.309217,-0.484844 5.840169,1.010508 1.530957,1.495333 1.983127,3.790938 1.144788,5.811969 -0.838339,2.021031 -2.801243,3.367466 -4.96967,3.408916 m 0,0 0.642849,3.112708 -0.754306,0.770852 -1.531749,0.485669 -1.730078,-1.632214 c -4.561822,5.839012 1.713369,9.48501 -4.377572,14.343803 L 62.622093,28.629385 c 5.713065,-6.195746 8.430061,0.08039 14.436183,-4.24753 l -1.676323,-1.654404 0.31018,-1.309943 1.007379,-1.01445 2.910256,0.519111" />
  <path
     id="path3924"
     style="fill:none;fill-opacity:1;stroke:#5d5d5d;stroke-width:1.05833;stroke-linecap:round;stroke-linejoin:round;stroke-miterlimit:4;stroke-dasharray:none;stroke-opacity:1"
     d="m 26.69295,20.921983 c -0.008,-2.167512 1.277107,-4.174732 3.279571,-5.058709 2.002478,-0.883962 4.309224,-0.484836 5.840169,1.010509 1.530964,1.49534 1.983127,3.790937 1.144788,5.811969 -0.838332,2.021038 -2.801229,3.36748 -4.969663,3.408922 m 0,0 0.642849,3.112709 -0.754306,0.770852 -1.531749,0.485669 -1.730078,-1.632214 c -4.561829,5.839005 1.713362,9.485003 -4.377573,14.343804 L 9.7054116,28.629381 c 5.7130644,-6.195749 8.4300724,0.0804 14.4361944,-4.247521 l -1.67633,-1.654411 0.310186,-1.309937 1.00738,-1.01445 2.910263,0.519119" />
</svg>
