<svg width="61.744" height="55.817" fill="none" version="1.1" viewBox="0 0 61.744 55.817" xmlns="http://www.w3.org/2000/svg">
 <g fill="#27569c">
  <path d="m50.807 43.971c-0.236 0-0.4567 0.2152-0.4601 0.2192l-3.4114 2.8138c-0.0295 0.0229-0.723 0.5726-0.723 1.5854v1.4054h-41.268v-43.971h41.268v1.3553c0 0.82019 0.6787 1.4017 0.7084 1.4266l3.6942 3.0474c0.0055 0.0043 0.1356 0.1047 0.2855 0.1047 0.1953 0 0.4277-0.1544 0.4277-0.8893v-6.4401c0-2.5953-1.7268-4.6284-3.931-4.6284h-43.296c-2.2615 2.0078e-4 -4.1015 2.0765-4.1015 4.6284v46.36c0 2.6174 1.8778 4.8286 4.1008 4.8292h6.8e-4 43.296 9e-4c2.1672-4e-4 3.9301-2.1666 3.9301-4.829v-5.8122c0-0.9959-0.2834-1.2049-0.5213-1.2049zm0.3457-32.741c0.0027-0.051 0.0051-0.1032 0.0051-0.1624 0 0.0532-0.0021 0.108-0.0051 0.1624zm-0.0086 0.1038c0.0014-0.0132 0.0031-0.0251 0.0043-0.0389-0.0012 0.0132-0.0029 0.0259-0.0043 0.0389zm0.0118 33.713c0.0012 0.0433 0.0019 0.0867 0.0019 0.1291 0-0.0452-9e-4 -0.0874-0.0019-0.1291zm-0.0024-0.0675c3e-4 0.0078 9e-4 0.0159 0.0012 0.0239-3e-4 -0.0084-9e-4 -0.0159-0.0012-0.0239z"/>
  <path d="m61.148 26.683-14.055-11.594c-0.2409-0.19877-0.4646-0.30398-0.7245-0.30398-0.564 0-1.0936 0.50436-1.0936 1.4683v6.8914h-18.002c-0.84632 0-1.6091 0.83665-1.6091 1.8332v5.9732c0 0.9965 0.76294 1.8312 1.6091 1.8312h18.002v6.895c0 0.964 0.53 1.5378 1.0939 1.5378h-0.0203c0.2599 0 0.5147-0.1397 0.7555-0.3387l14.049-11.61c0.3774-0.3112 0.5913-0.7875 0.5914-1.2915 2e-4 -0.5037-0.2186-0.9802-0.5961-1.2916z"/>
 </g>
</svg>
